#N canvas 10 110 450 300 12;
#X obj 60 40 adc~;
#X obj 60 180 dac~;
#X obj 130 180 delwrite~ \$0-echoL 150;
#X obj 130 150 delwrite~ \$0-echoR 150;
#X obj 130 40 delread~ \$0-echoL 150;
#X obj 130 70 delread~ \$0-echoR 150;
#X obj 60 110 *~ 0.5;
#X obj 110 110 *~ 0.5;
#X connect 0 0 6 0;
#X connect 0 1 7 0;
#X connect 4 0 6 0;
#X connect 5 0 7 0;
#X connect 6 0 1 0;
#X connect 6 0 2 0;
#X connect 7 0 1 1;
#X connect 7 0 3 0;
