#N canvas 310 280 440 330 14;
#X obj 40 140 osc~;
#X obj 70 270 dac~;
#X obj 40 20 r x;
#X obj 40 80 + 48;
#X obj 40 110 mtof;
#X obj 140 140 line~;
#X obj 60 170 *~;
#X obj 140 80 r trigger;
#X obj 90 140 osc~;
#X obj 90 20 r y;
#X obj 90 110 mtof;
#X obj 60 200 *~;
#X msg 140 110 1 \, 0 200;
#X obj 120 200 delread~ bob;
#X obj 80 230 *~ 0.5;
#X obj 120 270 delwrite~ bob 1000;
#X obj 190 140 loadbang;
#X obj 190 170 140;
#X obj 260 70 t;
#X obj 320 140 random 128;
#X obj 280 170 s x;
#X obj 320 170 / 127;
#X obj 320 200 s y;
#X obj 40 50 * 80;
#X obj 90 50 * 127;
#X obj 280 110 random 81;
#X obj 280 140 / 80;
#X obj 340 40 bng 15 250 50 0 random empty empty 17 7 0 10 #000000
#fcfcfc #fcfcfc;
#X obj 260 40 r random;
#X connect 0 0 6 0;
#X connect 2 0 23 0;
#X connect 3 0 4 0;
#X connect 4 0 0 0;
#X connect 5 0 11 1;
#X connect 6 0 11 0;
#X connect 7 0 12 0;
#X connect 8 0 6 1;
#X connect 9 0 24 0;
#X connect 10 0 8 0;
#X connect 11 0 14 0;
#X connect 12 0 5 0;
#X connect 13 0 14 0;
#X connect 14 0 15 0;
#X connect 14 0 1 0;
#X connect 14 0 1 1;
#X connect 16 0 17 0;
#X connect 17 0 13 0;
#X connect 18 0 12 0;
#X connect 18 1 19 0;
#X connect 18 1 25 0;
#X connect 19 0 21 0;
#X connect 21 0 22 0;
#X connect 23 0 3 0;
#X connect 24 0 10 0;
#X connect 25 0 26 0;
#X connect 26 0 20 0;
#X connect 28 0 18 0;
